<mxfile host="app.diagrams.net" modified="2022-01-19T19:46:52.139Z" agent="5.0 (Windows NT 10.0; Win64; x64) AppleWebKit/537.36 (KHTML, like Gecko) Chrome/97.0.4692.71 Safari/537.36" etag="7tllB0S2plKCE5fzooZU" version="16.2.7" type="github">
  <diagram id="ADFn5euueYk-jLwMCOQI" name="Page-1">
    <mxGraphModel dx="1406" dy="794" grid="1" gridSize="10" guides="1" tooltips="1" connect="1" arrows="1" fold="1" page="1" pageScale="1" pageWidth="827" pageHeight="1169" math="0" shadow="0">
      <root>
        <mxCell id="0" />
        <mxCell id="1" parent="0" />
        <mxCell id="69LL0J4C1ERPUhWOan6u-12" style="edgeStyle=orthogonalEdgeStyle;rounded=0;orthogonalLoop=1;jettySize=auto;html=1;" edge="1" parent="1" source="69LL0J4C1ERPUhWOan6u-2" target="69LL0J4C1ERPUhWOan6u-5">
          <mxGeometry relative="1" as="geometry" />
        </mxCell>
        <mxCell id="69LL0J4C1ERPUhWOan6u-21" style="edgeStyle=orthogonalEdgeStyle;rounded=0;orthogonalLoop=1;jettySize=auto;html=1;entryX=0.5;entryY=0;entryDx=0;entryDy=0;" edge="1" parent="1" source="69LL0J4C1ERPUhWOan6u-2" target="69LL0J4C1ERPUhWOan6u-16">
          <mxGeometry relative="1" as="geometry" />
        </mxCell>
        <mxCell id="69LL0J4C1ERPUhWOan6u-2" value="AuthGuard.Security" style="rounded=0;whiteSpace=wrap;html=1;" vertex="1" parent="1">
          <mxGeometry x="112.81" y="70" width="160" height="60" as="geometry" />
        </mxCell>
        <mxCell id="69LL0J4C1ERPUhWOan6u-25" value="" style="edgeStyle=orthogonalEdgeStyle;rounded=0;orthogonalLoop=1;jettySize=auto;html=1;" edge="1" parent="1" source="69LL0J4C1ERPUhWOan6u-3" target="69LL0J4C1ERPUhWOan6u-24">
          <mxGeometry relative="1" as="geometry">
            <Array as="points">
              <mxPoint x="620" y="170" />
              <mxPoint x="620" y="170" />
            </Array>
          </mxGeometry>
        </mxCell>
        <mxCell id="69LL0J4C1ERPUhWOan6u-3" value="AuthGuard.API" style="rounded=0;whiteSpace=wrap;html=1;" vertex="1" parent="1">
          <mxGeometry x="580" y="100" width="160" height="60" as="geometry" />
        </mxCell>
        <mxCell id="69LL0J4C1ERPUhWOan6u-14" style="edgeStyle=orthogonalEdgeStyle;rounded=0;orthogonalLoop=1;jettySize=auto;html=1;exitX=0.625;exitY=0.2;exitDx=0;exitDy=0;exitPerimeter=0;entryX=1;entryY=1;entryDx=0;entryDy=0;" edge="1" parent="1" source="69LL0J4C1ERPUhWOan6u-4" target="69LL0J4C1ERPUhWOan6u-7">
          <mxGeometry relative="1" as="geometry" />
        </mxCell>
        <mxCell id="69LL0J4C1ERPUhWOan6u-27" style="edgeStyle=orthogonalEdgeStyle;rounded=0;orthogonalLoop=1;jettySize=auto;html=1;exitX=0.875;exitY=0.5;exitDx=0;exitDy=0;exitPerimeter=0;" edge="1" parent="1" source="69LL0J4C1ERPUhWOan6u-4" target="69LL0J4C1ERPUhWOan6u-26">
          <mxGeometry relative="1" as="geometry" />
        </mxCell>
        <mxCell id="69LL0J4C1ERPUhWOan6u-4" value="GitHub Authorize &lt;br&gt;OAuth" style="ellipse;shape=cloud;whiteSpace=wrap;html=1;" vertex="1" parent="1">
          <mxGeometry x="100" y="445" width="185.62" height="140" as="geometry" />
        </mxCell>
        <mxCell id="69LL0J4C1ERPUhWOan6u-11" style="edgeStyle=orthogonalEdgeStyle;rounded=0;orthogonalLoop=1;jettySize=auto;html=1;entryX=0.5;entryY=0;entryDx=0;entryDy=0;" edge="1" parent="1" source="69LL0J4C1ERPUhWOan6u-5" target="69LL0J4C1ERPUhWOan6u-7">
          <mxGeometry relative="1" as="geometry" />
        </mxCell>
        <mxCell id="69LL0J4C1ERPUhWOan6u-5" value="Employee/Authorize" style="shape=parallelogram;perimeter=parallelogramPerimeter;whiteSpace=wrap;html=1;fixedSize=1;" vertex="1" parent="1">
          <mxGeometry x="114.69" y="180" width="156.25" height="60" as="geometry" />
        </mxCell>
        <mxCell id="69LL0J4C1ERPUhWOan6u-13" style="edgeStyle=orthogonalEdgeStyle;rounded=0;orthogonalLoop=1;jettySize=auto;html=1;entryX=0.4;entryY=0.1;entryDx=0;entryDy=0;entryPerimeter=0;" edge="1" parent="1" source="69LL0J4C1ERPUhWOan6u-7" target="69LL0J4C1ERPUhWOan6u-4">
          <mxGeometry relative="1" as="geometry" />
        </mxCell>
        <mxCell id="69LL0J4C1ERPUhWOan6u-15" style="edgeStyle=orthogonalEdgeStyle;rounded=0;orthogonalLoop=1;jettySize=auto;html=1;exitX=1;exitY=0;exitDx=0;exitDy=0;entryX=1;entryY=1;entryDx=0;entryDy=0;" edge="1" parent="1" source="69LL0J4C1ERPUhWOan6u-7" target="69LL0J4C1ERPUhWOan6u-5">
          <mxGeometry relative="1" as="geometry" />
        </mxCell>
        <mxCell id="69LL0J4C1ERPUhWOan6u-7" value="AuthGuard.Security&lt;br&gt;Authentication" style="ellipse;whiteSpace=wrap;html=1;" vertex="1" parent="1">
          <mxGeometry x="122.81" y="290" width="140" height="100" as="geometry" />
        </mxCell>
        <mxCell id="69LL0J4C1ERPUhWOan6u-22" style="edgeStyle=orthogonalEdgeStyle;rounded=0;orthogonalLoop=1;jettySize=auto;html=1;entryX=0.5;entryY=0;entryDx=0;entryDy=0;" edge="1" parent="1" source="69LL0J4C1ERPUhWOan6u-16" target="69LL0J4C1ERPUhWOan6u-3">
          <mxGeometry relative="1" as="geometry" />
        </mxCell>
        <mxCell id="69LL0J4C1ERPUhWOan6u-16" value="AuthGuard.Security&lt;br&gt;Swagger Page" style="shape=document;whiteSpace=wrap;html=1;boundedLbl=1;" vertex="1" parent="1">
          <mxGeometry x="360" y="90" width="150" height="100" as="geometry" />
        </mxCell>
        <mxCell id="69LL0J4C1ERPUhWOan6u-18" value="" style="curved=1;endArrow=classic;html=1;rounded=0;entryX=0;entryY=0.25;entryDx=0;entryDy=0;exitX=1;exitY=0.5;exitDx=0;exitDy=0;" edge="1" parent="1" source="69LL0J4C1ERPUhWOan6u-5" target="69LL0J4C1ERPUhWOan6u-16">
          <mxGeometry width="50" height="50" relative="1" as="geometry">
            <mxPoint x="280" y="210" as="sourcePoint" />
            <mxPoint x="330" y="160" as="targetPoint" />
            <Array as="points">
              <mxPoint x="330" y="210" />
              <mxPoint x="280" y="160" />
            </Array>
          </mxGeometry>
        </mxCell>
        <mxCell id="69LL0J4C1ERPUhWOan6u-20" value="Redirect" style="text;strokeColor=none;fillColor=none;spacingLeft=4;spacingRight=4;overflow=hidden;rotatable=0;points=[[0,0.5],[1,0.5]];portConstraint=eastwest;fontSize=12;" vertex="1" parent="1">
          <mxGeometry x="250" y="140" width="62.81" height="30" as="geometry" />
        </mxCell>
        <mxCell id="69LL0J4C1ERPUhWOan6u-33" style="edgeStyle=orthogonalEdgeStyle;rounded=0;orthogonalLoop=1;jettySize=auto;html=1;exitX=0.75;exitY=0;exitDx=0;exitDy=0;entryX=0.75;entryY=1;entryDx=0;entryDy=0;" edge="1" parent="1" source="69LL0J4C1ERPUhWOan6u-24" target="69LL0J4C1ERPUhWOan6u-3">
          <mxGeometry relative="1" as="geometry" />
        </mxCell>
        <mxCell id="69LL0J4C1ERPUhWOan6u-24" value="AuthGuard.API&lt;br&gt;JWT Authentication" style="whiteSpace=wrap;html=1;rounded=0;" vertex="1" parent="1">
          <mxGeometry x="580" y="210" width="160" height="60" as="geometry" />
        </mxCell>
        <mxCell id="69LL0J4C1ERPUhWOan6u-29" style="edgeStyle=orthogonalEdgeStyle;rounded=0;orthogonalLoop=1;jettySize=auto;html=1;entryX=1;entryY=0.5;entryDx=0;entryDy=0;" edge="1" parent="1" source="69LL0J4C1ERPUhWOan6u-26" target="69LL0J4C1ERPUhWOan6u-7">
          <mxGeometry relative="1" as="geometry" />
        </mxCell>
        <mxCell id="69LL0J4C1ERPUhWOan6u-26" value="AuthGuard.Security&lt;br&gt;Callback" style="shape=parallelogram;perimeter=parallelogramPerimeter;whiteSpace=wrap;html=1;fixedSize=1;" vertex="1" parent="1">
          <mxGeometry x="300" y="330" width="160" height="70" as="geometry" />
        </mxCell>
        <mxCell id="69LL0J4C1ERPUhWOan6u-36" style="edgeStyle=orthogonalEdgeStyle;rounded=0;orthogonalLoop=1;jettySize=auto;html=1;entryX=0.5;entryY=0;entryDx=0;entryDy=0;entryPerimeter=0;" edge="1" parent="1" source="69LL0J4C1ERPUhWOan6u-34" target="69LL0J4C1ERPUhWOan6u-35">
          <mxGeometry relative="1" as="geometry" />
        </mxCell>
        <mxCell id="69LL0J4C1ERPUhWOan6u-34" value="AuthGuard.API Repositories" style="shape=parallelogram;perimeter=parallelogramPerimeter;whiteSpace=wrap;html=1;fixedSize=1;" vertex="1" parent="1">
          <mxGeometry x="570" y="320" width="180" height="60" as="geometry" />
        </mxCell>
        <mxCell id="69LL0J4C1ERPUhWOan6u-37" style="edgeStyle=orthogonalEdgeStyle;rounded=0;orthogonalLoop=1;jettySize=auto;html=1;exitX=1;exitY=0.5;exitDx=0;exitDy=0;exitPerimeter=0;entryX=1;entryY=0.5;entryDx=0;entryDy=0;" edge="1" parent="1" source="69LL0J4C1ERPUhWOan6u-35" target="69LL0J4C1ERPUhWOan6u-34">
          <mxGeometry relative="1" as="geometry" />
        </mxCell>
        <mxCell id="69LL0J4C1ERPUhWOan6u-35" value="SQLite" style="shape=cylinder3;whiteSpace=wrap;html=1;boundedLbl=1;backgroundOutline=1;size=15;" vertex="1" parent="1">
          <mxGeometry x="620" y="440" width="80" height="80" as="geometry" />
        </mxCell>
        <mxCell id="69LL0J4C1ERPUhWOan6u-40" value="" style="curved=1;endArrow=classic;html=1;rounded=0;exitX=1;exitY=0.25;exitDx=0;exitDy=0;entryX=1;entryY=0.5;entryDx=0;entryDy=0;" edge="1" parent="1" source="69LL0J4C1ERPUhWOan6u-34" target="69LL0J4C1ERPUhWOan6u-3">
          <mxGeometry width="50" height="50" relative="1" as="geometry">
            <mxPoint x="770" y="280" as="sourcePoint" />
            <mxPoint x="820" y="230" as="targetPoint" />
            <Array as="points">
              <mxPoint x="820" y="280" />
              <mxPoint x="770" y="230" />
            </Array>
          </mxGeometry>
        </mxCell>
        <mxCell id="69LL0J4C1ERPUhWOan6u-42" value="" style="curved=1;endArrow=classic;html=1;rounded=0;entryX=0;entryY=0.25;entryDx=0;entryDy=0;exitX=0;exitY=0.75;exitDx=0;exitDy=0;" edge="1" parent="1" source="69LL0J4C1ERPUhWOan6u-3" target="69LL0J4C1ERPUhWOan6u-34">
          <mxGeometry width="50" height="50" relative="1" as="geometry">
            <mxPoint x="490" y="280" as="sourcePoint" />
            <mxPoint x="540" y="230" as="targetPoint" />
            <Array as="points">
              <mxPoint x="540" y="280" />
              <mxPoint x="490" y="230" />
            </Array>
          </mxGeometry>
        </mxCell>
      </root>
    </mxGraphModel>
  </diagram>
</mxfile>
